<svg xmlns="http://www.w3.org/2000/svg" xmlns:xlink="http://www.w3.org/1999/xlink" version="1.1" id="Layer_1" x="0px" y="0px" style="enable-background:new 0 0 9027.7 7283.7;" xml:space="preserve" viewBox="3068.3 2509.1 2893.5 2265.6"><style type="text/css">	.st0{fill:#111111;}</style><g>	<path class="st0" d="M5436.3,3613v-6.1c319.1-63.3,462.2-281.8,462.2-506.9c0-299.6-217.2-587.4-912.7-588.8h-269.6   c-20.4-0.8-39.5-2.1-60.7-2.1H3068.3v271.5l316.5,271.5v-271.5H4980c204.2,0,348.5,33.4,441.8,93.2c27.8,17.7,51.1,37.3,70.2,58.5   l1.3,1.3c49.8,57.2,72.3,126.6,72.3,206.9c0,4.8,0,10.3-0.8,15.1c0.8-1.3,0.8-2.6,0.8-4c-1.3,50.3-12.2,99.3-37.3,143.6   c-59.9,104.9-199.4,182.5-484.7,182.5H3385l-316.5-271.5v271.5l316.5,271.5h1658.5c357.3,0,575.8,91.9,575.8,359.9   c0,261.9-196,394.1-639.1,394.1H3385v-271.5l-316.5-268.8v540.3l316.5,271.5h1595.2c756.2,0,981.6-288.7,981.6-636.4   C5961.8,3847.1,5793.6,3660.7,5436.3,3613z"></path></g></svg>