<?xml version="1.0" encoding="utf-8"?>
<!-- Generator: Adobe Illustrator 25.1.0, SVG Export Plug-In . SVG Version: 6.00 Build 0)  -->
<svg version="1.1" id="Layer_1" xmlns="http://www.w3.org/2000/svg" xmlns:xlink="http://www.w3.org/1999/xlink" x="0px" y="0px"
	 viewBox="0 0 1662.13 262.48" style="enable-background:new 0 0 1662.13 262.48;" xml:space="preserve">
<style type="text/css">
	.st0{fill:#111111;}
</style>
<g>
	<rect x="301.38" y="88.53" class="st0" width="11.96" height="85.55"/>
	<path class="st0" d="M454.58,137.71h42.83c-0.95,18.18-21.17,29.06-48.79,29.06c-35.19,0-53.11-15.3-53.11-35.52
		c0-20.34,17.93-35.55,53.11-35.55c28.11,0,38.99,6.71,48.43,13.66l9.34-6.22c-5.99-5.76-19.99-17.59-57.77-17.59
		c-44.03,0-65.69,20.58-65.69,45.71c0,25.1,21.66,45.68,65.69,45.68c24.51,0,39.58-8.62,48.56-18.29h0.23v15.43h10.16v-46.53h-52.98
		V137.71z"/>
	<path class="st0" d="M889.63,140.33c0,19.75-16.87,26.44-42.36,26.44c-25.46,0-42.34-6.69-42.34-26.44v-51.8h-11.96v51.8
		c0,30.99,28.34,36.5,54.3,36.5c25.85,0,54.32-5.5,54.32-36.5v-51.8h-11.96V140.33z"/>
	<rect x="989.17" y="88.53" class="st0" width="11.96" height="85.55"/>
	<polygon class="st0" points="1102.24,88.53 1090.26,88.53 1090.26,174.08 1177.11,174.08 1177.11,163.89 1102.24,163.89 	"/>
	<path class="st0" d="M1308.96,88.53h-62.19v85.55h62.19c43.55,0,53.24-22.97,53.24-43.8C1362.2,108.51,1351.55,88.53,1308.96,88.53
		z M1308.96,163.89h-50.23V98.72h50.23c32.54,0,40.66,15.79,40.66,32.18C1349.62,147.15,1341.62,163.89,1308.96,163.89z"/>
	<path class="st0" d="M1495.84,123.46c-33.26-2.62-43.9-4.06-43.9-13.04c0-10.39,17.95-14.71,40.56-14.71
		c25.59,0,37.78,5.5,45.58,14.71l10.29-4.53c-7.79-11.37-23.23-20.35-55.76-20.35c-24.87,0-53.22,5.27-53.22,26.57
		c0,18.88,22.48,20.09,54.66,22.61c34.34,2.62,46.3,4.06,46.3,14.71c0,12.06-18.05,17.34-42.95,17.34
		c-28.58,0-41.98-6.94-50.36-17.1l-10.29,4.55c8.39,12.78,26.93,22.61,60.91,22.61c26.05,0,55.25-5.76,55.25-28.96
		C1552.89,126.34,1527.17,125.85,1495.84,123.46z"/>
	<path class="st0" d="M198.64,130.21v-0.23c12.05-2.39,17.45-10.64,17.45-19.14c0-11.31-8.2-22.18-34.46-22.23h-10.18
		c-0.77-0.03-1.49-0.08-2.29-0.08h-59.93v10.25l11.95,10.25l0-10.25h60.23c7.71,0,13.16,1.26,16.68,3.52
		c1.05,0.67,1.93,1.41,2.65,2.21l0.05,0.05c1.88,2.16,2.73,4.78,2.73,7.81c0,0.18,0,0.39-0.03,0.57c0.03-0.05,0.03-0.1,0.03-0.15
		c-0.05,1.9-0.46,3.75-1.41,5.42c-2.26,3.96-7.53,6.89-18.3,6.89h-62.62l-11.95-10.25v10.25l11.95,10.25h62.62
		c13.49,0,21.74,3.47,21.74,13.59c0,9.89-7.4,14.88-24.13,14.88h-60.23l0-10.25l-11.95-10.15v20.4l11.95,10.25h60.23
		c28.55,0,37.06-10.9,37.06-24.03C218.48,139.05,212.13,132.01,198.64,130.21z"/>
	<path class="st0" d="M692.06,130.21v-0.23c12.05-2.39,17.45-10.64,17.45-19.14c0-11.31-8.2-22.18-34.46-22.23h-10.18
		c-0.77-0.03-1.49-0.08-2.29-0.08h-59.93v10.25l11.95,10.25l0-10.25h60.23c7.71,0,13.16,1.26,16.68,3.52
		c1.05,0.67,1.93,1.41,2.65,2.21l0.05,0.05c1.88,2.16,2.73,4.78,2.73,7.81c0,0.18,0,0.39-0.03,0.57c0.03-0.05,0.03-0.1,0.03-0.15
		c-0.05,1.9-0.46,3.75-1.41,5.42c-2.26,3.96-7.53,6.89-18.3,6.89h-62.62l-11.95-10.25v10.25l11.95,10.25h62.62
		c13.49,0,21.74,3.47,21.74,13.59c0,9.89-7.4,14.88-24.13,14.88h-60.23l0-10.25l-11.95-10.15v20.4l11.95,10.25h60.23
		c28.55,0,37.06-10.9,37.06-24.03C711.9,139.05,705.55,132.01,692.06,130.21z"/>
</g>
</svg>
