<?xml version="1.0" encoding="utf-8"?>
<!-- Generator: Adobe Illustrator 25.3.1, SVG Export Plug-In . SVG Version: 6.00 Build 0)  -->
<svg version="1.1" id="Layer_1" xmlns="http://www.w3.org/2000/svg" xmlns:xlink="http://www.w3.org/1999/xlink" x="0px" y="0px"
	 viewBox="0 0 14600.3 2637.2" style="enable-background:new 0 0 14600.3 2637.2;" xml:space="preserve">
<style type="text/css">
	.st0{fill:#111111;}
</style>
<g>
	<rect x="1929.4" y="885.9" class="st0" width="120.5" height="859.7"/>
	<path class="st0" d="M3468,1380h429.9c-10,182.8-212.9,292.3-490.1,292.3c-353.5,0-533.3-153.7-533.3-356.5
		c0-203.9,179.8-357.5,533.3-357.5c282.2,0,391.7,67.3,486.1,137.6l93.4-62.3c-60.3-58.3-200.9-176.8-580.5-176.8
		c-441.9,0-659.9,206.9-659.9,459s217.9,459,659.9,459c246.1,0,397.7-86.4,488.1-183.8h2v154.7h102.4v-467H3467L3468,1380L3468,1380
		z"/>
	<path class="st0" d="M7838,1406.1c0,198.9-169.7,265.1-425.8,265.1c-256.1,0-424.8-67.3-424.8-265.1V885.9h-120.5v520.3
		c0,311.3,284.2,366.6,545.4,366.6c259.1,0,545.4-55.2,545.4-366.6V885.9H7837L7838,1406.1L7838,1406.1z"/>
	<rect x="8837.3" y="885.9" class="st0" width="120.5" height="859.7"/>
	<polygon class="st0" points="9973.2,885.9 9852.7,885.9 9852.7,1745.6 10725.5,1745.6 10725.5,1643.2 9973.2,1643.2 	"/>
	<path class="st0" d="M12049.2,885.9h-624.7v859.7h624.7c437.9,0,534.3-231,534.3-439.9C12584.5,1086.8,12477.1,885.9,12049.2,885.9
		z M12049.2,1643.2H11545V988.3h504.2c326.4,0,408.8,158.7,408.8,323.4C12458,1474.4,12377.6,1643.2,12049.2,1643.2z"/>
	<path class="st0" d="M13926.3,1237.4c-334.4-26.1-440.9-41.2-440.9-130.6c0-104.5,179.8-147.6,407.8-147.6
		c257.1,0,379.6,55.2,458,147.6l103.4-45.2c-78.3-114.5-233-203.9-560.4-203.9c-250.1,0-534.3,53.2-534.3,267.2
		c0,189.8,226,201.9,549.4,227c344.5,26.1,465,41.2,465,147.6c0,121.5-181.8,173.8-430.9,173.8c-287.2,0-421.8-69.3-506.2-171.7
		l-103.4,46.2c84.4,128.6,270.2,227,611.7,227c262.1,0,554.4-58.3,554.4-291.3C14499.8,1265.5,14240.7,1260.5,13926.3,1237.4z"/>
	<path class="st0" d="M897.9,1304.7v-2c121.5-24.1,174.8-106.5,174.8-191.8c0-113.5-82.4-223-346.5-223H624.7c-8,0-15.1-1-23.1-1H0
		v102.4l119.5,102.4V989.3h604.6c77.3,0,132.6,13.1,167.7,35.2c11,7,19.1,14.1,26.1,22.1l1,1c19.1,22.1,27.1,48.2,27.1,78.3
		c0,2,0,4,0,6c0-1,0-1,0-2c-1,19.1-5,38.2-14.1,54.2c-23.1,40.2-75.3,69.3-183.8,69.3H119.5L0,1151v102.4l119.5,102.4h628.7
		c135.6,0,217.9,35.2,217.9,136.6c0,99.4-74.3,149.6-242,149.6H119.5v-102.4L0,1437.3v204.9l119.5,102.4h604.6
		c287.2,0,372.6-109.5,372.6-241C1096.8,1394.1,1033.5,1322.8,897.9,1304.7z"/>
	<path class="st0" d="M5853.4,1304.7v-2c121.5-24.1,175.8-106.5,175.8-191.8c0-113.5-82.4-223-346.5-223h-102.4c-8,0-15.1-1-23.1-1
		h-601.6v102.4l120.5,102.4V989.3h604.6c77.3,0,132.6,13.1,167.7,35.2c10,7,19.1,14.1,27.1,22.1v1c19.1,22.1,27.1,48.2,27.1,78.3
		c0,2,0,4,0,6c0-1,0-1,0-2c0,19.1-5,38.2-14.1,54.2c-23.1,40.2-75.3,69.3-183.8,69.3H5076L4955.5,1151v102.4l120.5,102.4h628.7
		c135.6,0,217.9,35.2,217.9,136.6c0,99.4-74.3,149.6-242,149.6H5076v-102.4l-120.5-101.4v204.9l120.5,102.4h604.6
		c287.2,0,372.6-109.5,372.6-241C6053.2,1394.1,5988.9,1322.8,5853.4,1304.7z"/>
</g>
</svg>
