<?xml version="1.0" encoding="utf-8"?>
<!-- Generator: Adobe Illustrator 25.3.1, SVG Export Plug-In . SVG Version: 6.00 Build 0)  -->
<svg version="1.1" id="Layer_1" xmlns="http://www.w3.org/2000/svg" xmlns:xlink="http://www.w3.org/1999/xlink" x="0px" y="0px"
	 viewBox="0 0 1453.3 262.5" style="enable-background:new 0 0 1453.3 262.5;" xml:space="preserve">
<style type="text/css">
	.st0{fill:#FFFFFF;}
</style>
<g>
	<rect x="192.1" y="88.5" class="st0" width="12" height="85.6"/>
	<path class="st0" d="M345.3,137.7h42.8c-1,18.2-21.2,29.1-48.8,29.1c-35.2,0-53.1-15.3-53.1-35.5c0-20.3,17.9-35.6,53.1-35.6
		c28.1,0,39,6.7,48.4,13.7l9.3-6.2c-6-5.8-20-17.6-57.8-17.6c-44,0-65.7,20.6-65.7,45.7c0,25.1,21.7,45.7,65.7,45.7
		c24.5,0,39.6-8.6,48.6-18.3h0.2v15.4h10.2v-46.5h-53L345.3,137.7L345.3,137.7z"/>
	<path class="st0" d="M780.4,140.3c0,19.8-16.9,26.4-42.4,26.4c-25.5,0-42.3-6.7-42.3-26.4V88.5h-12v51.8c0,31,28.3,36.5,54.3,36.5
		c25.8,0,54.3-5.5,54.3-36.5V88.5h-12L780.4,140.3L780.4,140.3z"/>
	<rect x="879.9" y="88.5" class="st0" width="12" height="85.6"/>
	<polygon class="st0" points="993,88.5 981,88.5 981,174.1 1067.9,174.1 1067.9,163.9 993,163.9 	"/>
	<path class="st0" d="M1199.7,88.5h-62.2v85.6h62.2c43.6,0,53.2-23,53.2-43.8C1253,108.5,1242.3,88.5,1199.7,88.5z M1199.7,163.9
		h-50.2V98.7h50.2c32.5,0,40.7,15.8,40.7,32.2C1240.4,147.1,1232.4,163.9,1199.7,163.9z"/>
	<path class="st0" d="M1386.6,123.5c-33.3-2.6-43.9-4.1-43.9-13c0-10.4,17.9-14.7,40.6-14.7c25.6,0,37.8,5.5,45.6,14.7l10.3-4.5
		c-7.8-11.4-23.2-20.3-55.8-20.3c-24.9,0-53.2,5.3-53.2,26.6c0,18.9,22.5,20.1,54.7,22.6c34.3,2.6,46.3,4.1,46.3,14.7
		c0,12.1-18.1,17.3-42.9,17.3c-28.6,0-42-6.9-50.4-17.1l-10.3,4.6c8.4,12.8,26.9,22.6,60.9,22.6c26.1,0,55.2-5.8,55.2-29
		C1443.7,126.3,1417.9,125.8,1386.6,123.5z"/>
	<path class="st0" d="M89.4,130.2V130c12.1-2.4,17.4-10.6,17.4-19.1c0-11.3-8.2-22.2-34.5-22.2H62.2c-0.8,0-1.5-0.1-2.3-0.1H0v10.2
		L11.9,109V98.8h60.2c7.7,0,13.2,1.3,16.7,3.5c1.1,0.7,1.9,1.4,2.6,2.2l0.1,0.1c1.9,2.2,2.7,4.8,2.7,7.8c0,0.2,0,0.4,0,0.6
		c0-0.1,0-0.1,0-0.2c-0.1,1.9-0.5,3.8-1.4,5.4c-2.3,4-7.5,6.9-18.3,6.9H11.9L0,114.9v10.2l11.9,10.2h62.6c13.5,0,21.7,3.5,21.7,13.6
		c0,9.9-7.4,14.9-24.1,14.9H11.9v-10.2L0,143.4v20.4l11.9,10.2h60.2c28.6,0,37.1-10.9,37.1-24C109.2,139.1,102.9,132,89.4,130.2z"/>
	<path class="st0" d="M582.8,130.2V130c12.1-2.4,17.5-10.6,17.5-19.1c0-11.3-8.2-22.2-34.5-22.2h-10.2c-0.8,0-1.5-0.1-2.3-0.1h-59.9
		v10.2l12,10.2V98.8h60.2c7.7,0,13.2,1.3,16.7,3.5c1,0.7,1.9,1.4,2.7,2.2l0,0.1c1.9,2.2,2.7,4.8,2.7,7.8c0,0.2,0,0.4,0,0.6
		c0-0.1,0-0.1,0-0.2c0,1.9-0.5,3.8-1.4,5.4c-2.3,4-7.5,6.9-18.3,6.9h-62.6l-12-10.2v10.2l12,10.2H568c13.5,0,21.7,3.5,21.7,13.6
		c0,9.9-7.4,14.9-24.1,14.9h-60.2v-10.2l-12-10.1v20.4l12,10.2h60.2c28.6,0,37.1-10.9,37.1-24C602.7,139.1,596.3,132,582.8,130.2z"
		/>
</g>
</svg>
